<mxfile host="app.diagrams.net" agent="Mozilla/5.0 (Windows NT 10.0; Win64; x64) AppleWebKit/537.36 (KHTML, like Gecko) Chrome/131.0.0.0 Safari/537.36" version="25.0.3">
  <diagram name="Page-1" id="EwdUP884rN93_iaqglyh">
    <mxGraphModel dx="790" dy="743" grid="1" gridSize="10" guides="1" tooltips="1" connect="1" arrows="1" fold="1" page="1" pageScale="1" pageWidth="1169" pageHeight="827" math="0" shadow="0">
      <root>
        <mxCell id="0" />
        <mxCell id="1" parent="0" />
        <mxCell id="Fjg43alI3TSpxmNCnaQL-1" value="" style="shape=table;startSize=0;container=1;collapsible=0;childLayout=tableLayout;fontSize=16;" vertex="1" parent="1">
          <mxGeometry x="30" y="360" width="80" height="80" as="geometry" />
        </mxCell>
        <mxCell id="Fjg43alI3TSpxmNCnaQL-2" value="" style="shape=tableRow;horizontal=0;startSize=0;swimlaneHead=0;swimlaneBody=0;strokeColor=inherit;top=0;left=0;bottom=0;right=0;collapsible=0;dropTarget=0;fillColor=none;points=[[0,0.5],[1,0.5]];portConstraint=eastwest;fontSize=16;" vertex="1" parent="Fjg43alI3TSpxmNCnaQL-1">
          <mxGeometry width="80" height="27" as="geometry" />
        </mxCell>
        <mxCell id="Fjg43alI3TSpxmNCnaQL-3" value="" style="shape=partialRectangle;html=1;whiteSpace=wrap;connectable=0;strokeColor=inherit;overflow=hidden;fillColor=none;top=0;left=0;bottom=0;right=0;pointerEvents=1;fontSize=16;" vertex="1" parent="Fjg43alI3TSpxmNCnaQL-2">
          <mxGeometry width="27" height="27" as="geometry">
            <mxRectangle width="27" height="27" as="alternateBounds" />
          </mxGeometry>
        </mxCell>
        <mxCell id="Fjg43alI3TSpxmNCnaQL-4" value="A" style="shape=partialRectangle;html=1;whiteSpace=wrap;connectable=0;strokeColor=inherit;overflow=hidden;fillColor=none;top=0;left=0;bottom=0;right=0;pointerEvents=1;fontSize=16;" vertex="1" parent="Fjg43alI3TSpxmNCnaQL-2">
          <mxGeometry x="27" width="26" height="27" as="geometry">
            <mxRectangle width="26" height="27" as="alternateBounds" />
          </mxGeometry>
        </mxCell>
        <mxCell id="Fjg43alI3TSpxmNCnaQL-5" value="" style="shape=partialRectangle;html=1;whiteSpace=wrap;connectable=0;strokeColor=inherit;overflow=hidden;fillColor=none;top=0;left=0;bottom=0;right=0;pointerEvents=1;fontSize=16;" vertex="1" parent="Fjg43alI3TSpxmNCnaQL-2">
          <mxGeometry x="53" width="27" height="27" as="geometry">
            <mxRectangle width="27" height="27" as="alternateBounds" />
          </mxGeometry>
        </mxCell>
        <mxCell id="Fjg43alI3TSpxmNCnaQL-6" value="" style="shape=tableRow;horizontal=0;startSize=0;swimlaneHead=0;swimlaneBody=0;strokeColor=inherit;top=0;left=0;bottom=0;right=0;collapsible=0;dropTarget=0;fillColor=none;points=[[0,0.5],[1,0.5]];portConstraint=eastwest;fontSize=16;" vertex="1" parent="Fjg43alI3TSpxmNCnaQL-1">
          <mxGeometry y="27" width="80" height="26" as="geometry" />
        </mxCell>
        <mxCell id="Fjg43alI3TSpxmNCnaQL-7" value="" style="shape=partialRectangle;html=1;whiteSpace=wrap;connectable=0;strokeColor=inherit;overflow=hidden;fillColor=none;top=0;left=0;bottom=0;right=0;pointerEvents=1;fontSize=16;" vertex="1" parent="Fjg43alI3TSpxmNCnaQL-6">
          <mxGeometry width="27" height="26" as="geometry">
            <mxRectangle width="27" height="26" as="alternateBounds" />
          </mxGeometry>
        </mxCell>
        <mxCell id="Fjg43alI3TSpxmNCnaQL-8" value="" style="shape=partialRectangle;html=1;whiteSpace=wrap;connectable=0;strokeColor=inherit;overflow=hidden;fillColor=none;top=0;left=0;bottom=0;right=0;pointerEvents=1;fontSize=16;" vertex="1" parent="Fjg43alI3TSpxmNCnaQL-6">
          <mxGeometry x="27" width="26" height="26" as="geometry">
            <mxRectangle width="26" height="26" as="alternateBounds" />
          </mxGeometry>
        </mxCell>
        <mxCell id="Fjg43alI3TSpxmNCnaQL-9" value="" style="shape=partialRectangle;html=1;whiteSpace=wrap;connectable=0;strokeColor=inherit;overflow=hidden;fillColor=none;top=0;left=0;bottom=0;right=0;pointerEvents=1;fontSize=16;" vertex="1" parent="Fjg43alI3TSpxmNCnaQL-6">
          <mxGeometry x="53" width="27" height="26" as="geometry">
            <mxRectangle width="27" height="26" as="alternateBounds" />
          </mxGeometry>
        </mxCell>
        <mxCell id="Fjg43alI3TSpxmNCnaQL-10" value="" style="shape=tableRow;horizontal=0;startSize=0;swimlaneHead=0;swimlaneBody=0;strokeColor=inherit;top=0;left=0;bottom=0;right=0;collapsible=0;dropTarget=0;fillColor=none;points=[[0,0.5],[1,0.5]];portConstraint=eastwest;fontSize=16;" vertex="1" parent="Fjg43alI3TSpxmNCnaQL-1">
          <mxGeometry y="53" width="80" height="27" as="geometry" />
        </mxCell>
        <mxCell id="Fjg43alI3TSpxmNCnaQL-11" value="" style="shape=partialRectangle;html=1;whiteSpace=wrap;connectable=0;strokeColor=inherit;overflow=hidden;fillColor=none;top=0;left=0;bottom=0;right=0;pointerEvents=1;fontSize=16;" vertex="1" parent="Fjg43alI3TSpxmNCnaQL-10">
          <mxGeometry width="27" height="27" as="geometry">
            <mxRectangle width="27" height="27" as="alternateBounds" />
          </mxGeometry>
        </mxCell>
        <mxCell id="Fjg43alI3TSpxmNCnaQL-12" value="" style="shape=partialRectangle;html=1;whiteSpace=wrap;connectable=0;strokeColor=inherit;overflow=hidden;fillColor=none;top=0;left=0;bottom=0;right=0;pointerEvents=1;fontSize=16;" vertex="1" parent="Fjg43alI3TSpxmNCnaQL-10">
          <mxGeometry x="27" width="26" height="27" as="geometry">
            <mxRectangle width="26" height="27" as="alternateBounds" />
          </mxGeometry>
        </mxCell>
        <mxCell id="Fjg43alI3TSpxmNCnaQL-13" value="" style="shape=partialRectangle;html=1;whiteSpace=wrap;connectable=0;strokeColor=inherit;overflow=hidden;fillColor=none;top=0;left=0;bottom=0;right=0;pointerEvents=1;fontSize=16;" vertex="1" parent="Fjg43alI3TSpxmNCnaQL-10">
          <mxGeometry x="53" width="27" height="27" as="geometry">
            <mxRectangle width="27" height="27" as="alternateBounds" />
          </mxGeometry>
        </mxCell>
        <mxCell id="Fjg43alI3TSpxmNCnaQL-14" value="" style="shape=table;startSize=0;container=1;collapsible=0;childLayout=tableLayout;fontSize=16;" vertex="1" parent="1">
          <mxGeometry x="30" y="480" width="80" height="80" as="geometry" />
        </mxCell>
        <mxCell id="Fjg43alI3TSpxmNCnaQL-15" value="" style="shape=tableRow;horizontal=0;startSize=0;swimlaneHead=0;swimlaneBody=0;strokeColor=inherit;top=0;left=0;bottom=0;right=0;collapsible=0;dropTarget=0;fillColor=none;points=[[0,0.5],[1,0.5]];portConstraint=eastwest;fontSize=16;" vertex="1" parent="Fjg43alI3TSpxmNCnaQL-14">
          <mxGeometry width="80" height="27" as="geometry" />
        </mxCell>
        <mxCell id="Fjg43alI3TSpxmNCnaQL-16" value="" style="shape=partialRectangle;html=1;whiteSpace=wrap;connectable=0;strokeColor=inherit;overflow=hidden;fillColor=none;top=0;left=0;bottom=0;right=0;pointerEvents=1;fontSize=16;" vertex="1" parent="Fjg43alI3TSpxmNCnaQL-15">
          <mxGeometry width="27" height="27" as="geometry">
            <mxRectangle width="27" height="27" as="alternateBounds" />
          </mxGeometry>
        </mxCell>
        <mxCell id="Fjg43alI3TSpxmNCnaQL-17" value="B" style="shape=partialRectangle;html=1;whiteSpace=wrap;connectable=0;strokeColor=inherit;overflow=hidden;fillColor=none;top=0;left=0;bottom=0;right=0;pointerEvents=1;fontSize=16;" vertex="1" parent="Fjg43alI3TSpxmNCnaQL-15">
          <mxGeometry x="27" width="26" height="27" as="geometry">
            <mxRectangle width="26" height="27" as="alternateBounds" />
          </mxGeometry>
        </mxCell>
        <mxCell id="Fjg43alI3TSpxmNCnaQL-18" value="" style="shape=partialRectangle;html=1;whiteSpace=wrap;connectable=0;strokeColor=inherit;overflow=hidden;fillColor=none;top=0;left=0;bottom=0;right=0;pointerEvents=1;fontSize=16;" vertex="1" parent="Fjg43alI3TSpxmNCnaQL-15">
          <mxGeometry x="53" width="27" height="27" as="geometry">
            <mxRectangle width="27" height="27" as="alternateBounds" />
          </mxGeometry>
        </mxCell>
        <mxCell id="Fjg43alI3TSpxmNCnaQL-19" value="" style="shape=tableRow;horizontal=0;startSize=0;swimlaneHead=0;swimlaneBody=0;strokeColor=inherit;top=0;left=0;bottom=0;right=0;collapsible=0;dropTarget=0;fillColor=none;points=[[0,0.5],[1,0.5]];portConstraint=eastwest;fontSize=16;" vertex="1" parent="Fjg43alI3TSpxmNCnaQL-14">
          <mxGeometry y="27" width="80" height="26" as="geometry" />
        </mxCell>
        <mxCell id="Fjg43alI3TSpxmNCnaQL-20" value="" style="shape=partialRectangle;html=1;whiteSpace=wrap;connectable=0;strokeColor=inherit;overflow=hidden;fillColor=none;top=0;left=0;bottom=0;right=0;pointerEvents=1;fontSize=16;" vertex="1" parent="Fjg43alI3TSpxmNCnaQL-19">
          <mxGeometry width="27" height="26" as="geometry">
            <mxRectangle width="27" height="26" as="alternateBounds" />
          </mxGeometry>
        </mxCell>
        <mxCell id="Fjg43alI3TSpxmNCnaQL-21" value="" style="shape=partialRectangle;html=1;whiteSpace=wrap;connectable=0;strokeColor=inherit;overflow=hidden;fillColor=none;top=0;left=0;bottom=0;right=0;pointerEvents=1;fontSize=16;" vertex="1" parent="Fjg43alI3TSpxmNCnaQL-19">
          <mxGeometry x="27" width="26" height="26" as="geometry">
            <mxRectangle width="26" height="26" as="alternateBounds" />
          </mxGeometry>
        </mxCell>
        <mxCell id="Fjg43alI3TSpxmNCnaQL-22" value="" style="shape=partialRectangle;html=1;whiteSpace=wrap;connectable=0;strokeColor=inherit;overflow=hidden;fillColor=none;top=0;left=0;bottom=0;right=0;pointerEvents=1;fontSize=16;" vertex="1" parent="Fjg43alI3TSpxmNCnaQL-19">
          <mxGeometry x="53" width="27" height="26" as="geometry">
            <mxRectangle width="27" height="26" as="alternateBounds" />
          </mxGeometry>
        </mxCell>
        <mxCell id="Fjg43alI3TSpxmNCnaQL-23" value="" style="shape=tableRow;horizontal=0;startSize=0;swimlaneHead=0;swimlaneBody=0;strokeColor=inherit;top=0;left=0;bottom=0;right=0;collapsible=0;dropTarget=0;fillColor=none;points=[[0,0.5],[1,0.5]];portConstraint=eastwest;fontSize=16;" vertex="1" parent="Fjg43alI3TSpxmNCnaQL-14">
          <mxGeometry y="53" width="80" height="27" as="geometry" />
        </mxCell>
        <mxCell id="Fjg43alI3TSpxmNCnaQL-24" value="" style="shape=partialRectangle;html=1;whiteSpace=wrap;connectable=0;strokeColor=inherit;overflow=hidden;fillColor=none;top=0;left=0;bottom=0;right=0;pointerEvents=1;fontSize=16;" vertex="1" parent="Fjg43alI3TSpxmNCnaQL-23">
          <mxGeometry width="27" height="27" as="geometry">
            <mxRectangle width="27" height="27" as="alternateBounds" />
          </mxGeometry>
        </mxCell>
        <mxCell id="Fjg43alI3TSpxmNCnaQL-25" value="" style="shape=partialRectangle;html=1;whiteSpace=wrap;connectable=0;strokeColor=inherit;overflow=hidden;fillColor=none;top=0;left=0;bottom=0;right=0;pointerEvents=1;fontSize=16;" vertex="1" parent="Fjg43alI3TSpxmNCnaQL-23">
          <mxGeometry x="27" width="26" height="27" as="geometry">
            <mxRectangle width="26" height="27" as="alternateBounds" />
          </mxGeometry>
        </mxCell>
        <mxCell id="Fjg43alI3TSpxmNCnaQL-26" value="" style="shape=partialRectangle;html=1;whiteSpace=wrap;connectable=0;strokeColor=inherit;overflow=hidden;fillColor=none;top=0;left=0;bottom=0;right=0;pointerEvents=1;fontSize=16;" vertex="1" parent="Fjg43alI3TSpxmNCnaQL-23">
          <mxGeometry x="53" width="27" height="27" as="geometry">
            <mxRectangle width="27" height="27" as="alternateBounds" />
          </mxGeometry>
        </mxCell>
        <mxCell id="Fjg43alI3TSpxmNCnaQL-27" value="" style="shape=table;startSize=0;container=1;collapsible=0;childLayout=tableLayout;fontSize=16;" vertex="1" parent="1">
          <mxGeometry x="180" y="240" width="80" height="80" as="geometry" />
        </mxCell>
        <mxCell id="Fjg43alI3TSpxmNCnaQL-28" value="" style="shape=tableRow;horizontal=0;startSize=0;swimlaneHead=0;swimlaneBody=0;strokeColor=inherit;top=0;left=0;bottom=0;right=0;collapsible=0;dropTarget=0;fillColor=none;points=[[0,0.5],[1,0.5]];portConstraint=eastwest;fontSize=16;" vertex="1" parent="Fjg43alI3TSpxmNCnaQL-27">
          <mxGeometry width="80" height="27" as="geometry" />
        </mxCell>
        <mxCell id="Fjg43alI3TSpxmNCnaQL-29" value="" style="shape=partialRectangle;html=1;whiteSpace=wrap;connectable=0;strokeColor=inherit;overflow=hidden;fillColor=none;top=0;left=0;bottom=0;right=0;pointerEvents=1;fontSize=16;" vertex="1" parent="Fjg43alI3TSpxmNCnaQL-28">
          <mxGeometry width="27" height="27" as="geometry">
            <mxRectangle width="27" height="27" as="alternateBounds" />
          </mxGeometry>
        </mxCell>
        <mxCell id="Fjg43alI3TSpxmNCnaQL-30" value="H" style="shape=partialRectangle;html=1;whiteSpace=wrap;connectable=0;strokeColor=inherit;overflow=hidden;fillColor=none;top=0;left=0;bottom=0;right=0;pointerEvents=1;fontSize=16;" vertex="1" parent="Fjg43alI3TSpxmNCnaQL-28">
          <mxGeometry x="27" width="26" height="27" as="geometry">
            <mxRectangle width="26" height="27" as="alternateBounds" />
          </mxGeometry>
        </mxCell>
        <mxCell id="Fjg43alI3TSpxmNCnaQL-31" value="" style="shape=partialRectangle;html=1;whiteSpace=wrap;connectable=0;strokeColor=inherit;overflow=hidden;fillColor=none;top=0;left=0;bottom=0;right=0;pointerEvents=1;fontSize=16;" vertex="1" parent="Fjg43alI3TSpxmNCnaQL-28">
          <mxGeometry x="53" width="27" height="27" as="geometry">
            <mxRectangle width="27" height="27" as="alternateBounds" />
          </mxGeometry>
        </mxCell>
        <mxCell id="Fjg43alI3TSpxmNCnaQL-32" value="" style="shape=tableRow;horizontal=0;startSize=0;swimlaneHead=0;swimlaneBody=0;strokeColor=inherit;top=0;left=0;bottom=0;right=0;collapsible=0;dropTarget=0;fillColor=none;points=[[0,0.5],[1,0.5]];portConstraint=eastwest;fontSize=16;" vertex="1" parent="Fjg43alI3TSpxmNCnaQL-27">
          <mxGeometry y="27" width="80" height="26" as="geometry" />
        </mxCell>
        <mxCell id="Fjg43alI3TSpxmNCnaQL-33" value="" style="shape=partialRectangle;html=1;whiteSpace=wrap;connectable=0;strokeColor=inherit;overflow=hidden;fillColor=none;top=0;left=0;bottom=0;right=0;pointerEvents=1;fontSize=16;" vertex="1" parent="Fjg43alI3TSpxmNCnaQL-32">
          <mxGeometry width="27" height="26" as="geometry">
            <mxRectangle width="27" height="26" as="alternateBounds" />
          </mxGeometry>
        </mxCell>
        <mxCell id="Fjg43alI3TSpxmNCnaQL-34" value="" style="shape=partialRectangle;html=1;whiteSpace=wrap;connectable=0;strokeColor=inherit;overflow=hidden;fillColor=none;top=0;left=0;bottom=0;right=0;pointerEvents=1;fontSize=16;" vertex="1" parent="Fjg43alI3TSpxmNCnaQL-32">
          <mxGeometry x="27" width="26" height="26" as="geometry">
            <mxRectangle width="26" height="26" as="alternateBounds" />
          </mxGeometry>
        </mxCell>
        <mxCell id="Fjg43alI3TSpxmNCnaQL-35" value="" style="shape=partialRectangle;html=1;whiteSpace=wrap;connectable=0;strokeColor=inherit;overflow=hidden;fillColor=none;top=0;left=0;bottom=0;right=0;pointerEvents=1;fontSize=16;" vertex="1" parent="Fjg43alI3TSpxmNCnaQL-32">
          <mxGeometry x="53" width="27" height="26" as="geometry">
            <mxRectangle width="27" height="26" as="alternateBounds" />
          </mxGeometry>
        </mxCell>
        <mxCell id="Fjg43alI3TSpxmNCnaQL-36" value="" style="shape=tableRow;horizontal=0;startSize=0;swimlaneHead=0;swimlaneBody=0;strokeColor=inherit;top=0;left=0;bottom=0;right=0;collapsible=0;dropTarget=0;fillColor=none;points=[[0,0.5],[1,0.5]];portConstraint=eastwest;fontSize=16;" vertex="1" parent="Fjg43alI3TSpxmNCnaQL-27">
          <mxGeometry y="53" width="80" height="27" as="geometry" />
        </mxCell>
        <mxCell id="Fjg43alI3TSpxmNCnaQL-37" value="" style="shape=partialRectangle;html=1;whiteSpace=wrap;connectable=0;strokeColor=inherit;overflow=hidden;fillColor=none;top=0;left=0;bottom=0;right=0;pointerEvents=1;fontSize=16;" vertex="1" parent="Fjg43alI3TSpxmNCnaQL-36">
          <mxGeometry width="27" height="27" as="geometry">
            <mxRectangle width="27" height="27" as="alternateBounds" />
          </mxGeometry>
        </mxCell>
        <mxCell id="Fjg43alI3TSpxmNCnaQL-38" value="" style="shape=partialRectangle;html=1;whiteSpace=wrap;connectable=0;strokeColor=inherit;overflow=hidden;fillColor=none;top=0;left=0;bottom=0;right=0;pointerEvents=1;fontSize=16;" vertex="1" parent="Fjg43alI3TSpxmNCnaQL-36">
          <mxGeometry x="27" width="26" height="27" as="geometry">
            <mxRectangle width="26" height="27" as="alternateBounds" />
          </mxGeometry>
        </mxCell>
        <mxCell id="Fjg43alI3TSpxmNCnaQL-39" value="" style="shape=partialRectangle;html=1;whiteSpace=wrap;connectable=0;strokeColor=inherit;overflow=hidden;fillColor=none;top=0;left=0;bottom=0;right=0;pointerEvents=1;fontSize=16;" vertex="1" parent="Fjg43alI3TSpxmNCnaQL-36">
          <mxGeometry x="53" width="27" height="27" as="geometry">
            <mxRectangle width="27" height="27" as="alternateBounds" />
          </mxGeometry>
        </mxCell>
        <mxCell id="Fjg43alI3TSpxmNCnaQL-40" value="" style="shape=table;startSize=0;container=1;collapsible=0;childLayout=tableLayout;fontSize=16;" vertex="1" parent="1">
          <mxGeometry x="180" y="500" width="80" height="80" as="geometry" />
        </mxCell>
        <mxCell id="Fjg43alI3TSpxmNCnaQL-41" value="" style="shape=tableRow;horizontal=0;startSize=0;swimlaneHead=0;swimlaneBody=0;strokeColor=inherit;top=0;left=0;bottom=0;right=0;collapsible=0;dropTarget=0;fillColor=none;points=[[0,0.5],[1,0.5]];portConstraint=eastwest;fontSize=16;" vertex="1" parent="Fjg43alI3TSpxmNCnaQL-40">
          <mxGeometry width="80" height="27" as="geometry" />
        </mxCell>
        <mxCell id="Fjg43alI3TSpxmNCnaQL-42" value="" style="shape=partialRectangle;html=1;whiteSpace=wrap;connectable=0;strokeColor=inherit;overflow=hidden;fillColor=none;top=0;left=0;bottom=0;right=0;pointerEvents=1;fontSize=16;" vertex="1" parent="Fjg43alI3TSpxmNCnaQL-41">
          <mxGeometry width="27" height="27" as="geometry">
            <mxRectangle width="27" height="27" as="alternateBounds" />
          </mxGeometry>
        </mxCell>
        <mxCell id="Fjg43alI3TSpxmNCnaQL-43" value="D" style="shape=partialRectangle;html=1;whiteSpace=wrap;connectable=0;strokeColor=inherit;overflow=hidden;fillColor=none;top=0;left=0;bottom=0;right=0;pointerEvents=1;fontSize=16;" vertex="1" parent="Fjg43alI3TSpxmNCnaQL-41">
          <mxGeometry x="27" width="26" height="27" as="geometry">
            <mxRectangle width="26" height="27" as="alternateBounds" />
          </mxGeometry>
        </mxCell>
        <mxCell id="Fjg43alI3TSpxmNCnaQL-44" value="" style="shape=partialRectangle;html=1;whiteSpace=wrap;connectable=0;strokeColor=inherit;overflow=hidden;fillColor=none;top=0;left=0;bottom=0;right=0;pointerEvents=1;fontSize=16;" vertex="1" parent="Fjg43alI3TSpxmNCnaQL-41">
          <mxGeometry x="53" width="27" height="27" as="geometry">
            <mxRectangle width="27" height="27" as="alternateBounds" />
          </mxGeometry>
        </mxCell>
        <mxCell id="Fjg43alI3TSpxmNCnaQL-45" value="" style="shape=tableRow;horizontal=0;startSize=0;swimlaneHead=0;swimlaneBody=0;strokeColor=inherit;top=0;left=0;bottom=0;right=0;collapsible=0;dropTarget=0;fillColor=none;points=[[0,0.5],[1,0.5]];portConstraint=eastwest;fontSize=16;" vertex="1" parent="Fjg43alI3TSpxmNCnaQL-40">
          <mxGeometry y="27" width="80" height="26" as="geometry" />
        </mxCell>
        <mxCell id="Fjg43alI3TSpxmNCnaQL-46" value="" style="shape=partialRectangle;html=1;whiteSpace=wrap;connectable=0;strokeColor=inherit;overflow=hidden;fillColor=none;top=0;left=0;bottom=0;right=0;pointerEvents=1;fontSize=16;" vertex="1" parent="Fjg43alI3TSpxmNCnaQL-45">
          <mxGeometry width="27" height="26" as="geometry">
            <mxRectangle width="27" height="26" as="alternateBounds" />
          </mxGeometry>
        </mxCell>
        <mxCell id="Fjg43alI3TSpxmNCnaQL-47" value="" style="shape=partialRectangle;html=1;whiteSpace=wrap;connectable=0;strokeColor=inherit;overflow=hidden;fillColor=none;top=0;left=0;bottom=0;right=0;pointerEvents=1;fontSize=16;" vertex="1" parent="Fjg43alI3TSpxmNCnaQL-45">
          <mxGeometry x="27" width="26" height="26" as="geometry">
            <mxRectangle width="26" height="26" as="alternateBounds" />
          </mxGeometry>
        </mxCell>
        <mxCell id="Fjg43alI3TSpxmNCnaQL-48" value="" style="shape=partialRectangle;html=1;whiteSpace=wrap;connectable=0;strokeColor=inherit;overflow=hidden;fillColor=none;top=0;left=0;bottom=0;right=0;pointerEvents=1;fontSize=16;" vertex="1" parent="Fjg43alI3TSpxmNCnaQL-45">
          <mxGeometry x="53" width="27" height="26" as="geometry">
            <mxRectangle width="27" height="26" as="alternateBounds" />
          </mxGeometry>
        </mxCell>
        <mxCell id="Fjg43alI3TSpxmNCnaQL-49" value="" style="shape=tableRow;horizontal=0;startSize=0;swimlaneHead=0;swimlaneBody=0;strokeColor=inherit;top=0;left=0;bottom=0;right=0;collapsible=0;dropTarget=0;fillColor=none;points=[[0,0.5],[1,0.5]];portConstraint=eastwest;fontSize=16;" vertex="1" parent="Fjg43alI3TSpxmNCnaQL-40">
          <mxGeometry y="53" width="80" height="27" as="geometry" />
        </mxCell>
        <mxCell id="Fjg43alI3TSpxmNCnaQL-50" value="" style="shape=partialRectangle;html=1;whiteSpace=wrap;connectable=0;strokeColor=inherit;overflow=hidden;fillColor=none;top=0;left=0;bottom=0;right=0;pointerEvents=1;fontSize=16;" vertex="1" parent="Fjg43alI3TSpxmNCnaQL-49">
          <mxGeometry width="27" height="27" as="geometry">
            <mxRectangle width="27" height="27" as="alternateBounds" />
          </mxGeometry>
        </mxCell>
        <mxCell id="Fjg43alI3TSpxmNCnaQL-51" value="" style="shape=partialRectangle;html=1;whiteSpace=wrap;connectable=0;strokeColor=inherit;overflow=hidden;fillColor=none;top=0;left=0;bottom=0;right=0;pointerEvents=1;fontSize=16;" vertex="1" parent="Fjg43alI3TSpxmNCnaQL-49">
          <mxGeometry x="27" width="26" height="27" as="geometry">
            <mxRectangle width="26" height="27" as="alternateBounds" />
          </mxGeometry>
        </mxCell>
        <mxCell id="Fjg43alI3TSpxmNCnaQL-52" value="" style="shape=partialRectangle;html=1;whiteSpace=wrap;connectable=0;strokeColor=inherit;overflow=hidden;fillColor=none;top=0;left=0;bottom=0;right=0;pointerEvents=1;fontSize=16;" vertex="1" parent="Fjg43alI3TSpxmNCnaQL-49">
          <mxGeometry x="53" width="27" height="27" as="geometry">
            <mxRectangle width="27" height="27" as="alternateBounds" />
          </mxGeometry>
        </mxCell>
        <mxCell id="Fjg43alI3TSpxmNCnaQL-53" value="" style="shape=table;startSize=0;container=1;collapsible=0;childLayout=tableLayout;fontSize=16;" vertex="1" parent="1">
          <mxGeometry x="180" y="380" width="80" height="80" as="geometry" />
        </mxCell>
        <mxCell id="Fjg43alI3TSpxmNCnaQL-54" value="" style="shape=tableRow;horizontal=0;startSize=0;swimlaneHead=0;swimlaneBody=0;strokeColor=inherit;top=0;left=0;bottom=0;right=0;collapsible=0;dropTarget=0;fillColor=none;points=[[0,0.5],[1,0.5]];portConstraint=eastwest;fontSize=16;" vertex="1" parent="Fjg43alI3TSpxmNCnaQL-53">
          <mxGeometry width="80" height="27" as="geometry" />
        </mxCell>
        <mxCell id="Fjg43alI3TSpxmNCnaQL-55" value="" style="shape=partialRectangle;html=1;whiteSpace=wrap;connectable=0;strokeColor=inherit;overflow=hidden;fillColor=none;top=0;left=0;bottom=0;right=0;pointerEvents=1;fontSize=16;" vertex="1" parent="Fjg43alI3TSpxmNCnaQL-54">
          <mxGeometry width="27" height="27" as="geometry">
            <mxRectangle width="27" height="27" as="alternateBounds" />
          </mxGeometry>
        </mxCell>
        <mxCell id="Fjg43alI3TSpxmNCnaQL-56" value="E" style="shape=partialRectangle;html=1;whiteSpace=wrap;connectable=0;strokeColor=inherit;overflow=hidden;fillColor=none;top=0;left=0;bottom=0;right=0;pointerEvents=1;fontSize=16;" vertex="1" parent="Fjg43alI3TSpxmNCnaQL-54">
          <mxGeometry x="27" width="26" height="27" as="geometry">
            <mxRectangle width="26" height="27" as="alternateBounds" />
          </mxGeometry>
        </mxCell>
        <mxCell id="Fjg43alI3TSpxmNCnaQL-57" value="" style="shape=partialRectangle;html=1;whiteSpace=wrap;connectable=0;strokeColor=inherit;overflow=hidden;fillColor=none;top=0;left=0;bottom=0;right=0;pointerEvents=1;fontSize=16;" vertex="1" parent="Fjg43alI3TSpxmNCnaQL-54">
          <mxGeometry x="53" width="27" height="27" as="geometry">
            <mxRectangle width="27" height="27" as="alternateBounds" />
          </mxGeometry>
        </mxCell>
        <mxCell id="Fjg43alI3TSpxmNCnaQL-58" value="" style="shape=tableRow;horizontal=0;startSize=0;swimlaneHead=0;swimlaneBody=0;strokeColor=inherit;top=0;left=0;bottom=0;right=0;collapsible=0;dropTarget=0;fillColor=none;points=[[0,0.5],[1,0.5]];portConstraint=eastwest;fontSize=16;" vertex="1" parent="Fjg43alI3TSpxmNCnaQL-53">
          <mxGeometry y="27" width="80" height="26" as="geometry" />
        </mxCell>
        <mxCell id="Fjg43alI3TSpxmNCnaQL-59" value="" style="shape=partialRectangle;html=1;whiteSpace=wrap;connectable=0;strokeColor=inherit;overflow=hidden;fillColor=none;top=0;left=0;bottom=0;right=0;pointerEvents=1;fontSize=16;" vertex="1" parent="Fjg43alI3TSpxmNCnaQL-58">
          <mxGeometry width="27" height="26" as="geometry">
            <mxRectangle width="27" height="26" as="alternateBounds" />
          </mxGeometry>
        </mxCell>
        <mxCell id="Fjg43alI3TSpxmNCnaQL-60" value="" style="shape=partialRectangle;html=1;whiteSpace=wrap;connectable=0;strokeColor=inherit;overflow=hidden;fillColor=none;top=0;left=0;bottom=0;right=0;pointerEvents=1;fontSize=16;" vertex="1" parent="Fjg43alI3TSpxmNCnaQL-58">
          <mxGeometry x="27" width="26" height="26" as="geometry">
            <mxRectangle width="26" height="26" as="alternateBounds" />
          </mxGeometry>
        </mxCell>
        <mxCell id="Fjg43alI3TSpxmNCnaQL-61" value="" style="shape=partialRectangle;html=1;whiteSpace=wrap;connectable=0;strokeColor=inherit;overflow=hidden;fillColor=none;top=0;left=0;bottom=0;right=0;pointerEvents=1;fontSize=16;" vertex="1" parent="Fjg43alI3TSpxmNCnaQL-58">
          <mxGeometry x="53" width="27" height="26" as="geometry">
            <mxRectangle width="27" height="26" as="alternateBounds" />
          </mxGeometry>
        </mxCell>
        <mxCell id="Fjg43alI3TSpxmNCnaQL-62" value="" style="shape=tableRow;horizontal=0;startSize=0;swimlaneHead=0;swimlaneBody=0;strokeColor=inherit;top=0;left=0;bottom=0;right=0;collapsible=0;dropTarget=0;fillColor=none;points=[[0,0.5],[1,0.5]];portConstraint=eastwest;fontSize=16;" vertex="1" parent="Fjg43alI3TSpxmNCnaQL-53">
          <mxGeometry y="53" width="80" height="27" as="geometry" />
        </mxCell>
        <mxCell id="Fjg43alI3TSpxmNCnaQL-63" value="" style="shape=partialRectangle;html=1;whiteSpace=wrap;connectable=0;strokeColor=inherit;overflow=hidden;fillColor=none;top=0;left=0;bottom=0;right=0;pointerEvents=1;fontSize=16;" vertex="1" parent="Fjg43alI3TSpxmNCnaQL-62">
          <mxGeometry width="27" height="27" as="geometry">
            <mxRectangle width="27" height="27" as="alternateBounds" />
          </mxGeometry>
        </mxCell>
        <mxCell id="Fjg43alI3TSpxmNCnaQL-64" value="" style="shape=partialRectangle;html=1;whiteSpace=wrap;connectable=0;strokeColor=inherit;overflow=hidden;fillColor=none;top=0;left=0;bottom=0;right=0;pointerEvents=1;fontSize=16;" vertex="1" parent="Fjg43alI3TSpxmNCnaQL-62">
          <mxGeometry x="27" width="26" height="27" as="geometry">
            <mxRectangle width="26" height="27" as="alternateBounds" />
          </mxGeometry>
        </mxCell>
        <mxCell id="Fjg43alI3TSpxmNCnaQL-65" value="" style="shape=partialRectangle;html=1;whiteSpace=wrap;connectable=0;strokeColor=inherit;overflow=hidden;fillColor=none;top=0;left=0;bottom=0;right=0;pointerEvents=1;fontSize=16;" vertex="1" parent="Fjg43alI3TSpxmNCnaQL-62">
          <mxGeometry x="53" width="27" height="27" as="geometry">
            <mxRectangle width="27" height="27" as="alternateBounds" />
          </mxGeometry>
        </mxCell>
        <mxCell id="Fjg43alI3TSpxmNCnaQL-66" value="" style="shape=table;startSize=0;container=1;collapsible=0;childLayout=tableLayout;fontSize=16;" vertex="1" parent="1">
          <mxGeometry x="180" y="620" width="80" height="80" as="geometry" />
        </mxCell>
        <mxCell id="Fjg43alI3TSpxmNCnaQL-67" value="" style="shape=tableRow;horizontal=0;startSize=0;swimlaneHead=0;swimlaneBody=0;strokeColor=inherit;top=0;left=0;bottom=0;right=0;collapsible=0;dropTarget=0;fillColor=none;points=[[0,0.5],[1,0.5]];portConstraint=eastwest;fontSize=16;" vertex="1" parent="Fjg43alI3TSpxmNCnaQL-66">
          <mxGeometry width="80" height="27" as="geometry" />
        </mxCell>
        <mxCell id="Fjg43alI3TSpxmNCnaQL-68" value="" style="shape=partialRectangle;html=1;whiteSpace=wrap;connectable=0;strokeColor=inherit;overflow=hidden;fillColor=none;top=0;left=0;bottom=0;right=0;pointerEvents=1;fontSize=16;" vertex="1" parent="Fjg43alI3TSpxmNCnaQL-67">
          <mxGeometry width="27" height="27" as="geometry">
            <mxRectangle width="27" height="27" as="alternateBounds" />
          </mxGeometry>
        </mxCell>
        <mxCell id="Fjg43alI3TSpxmNCnaQL-69" value="C" style="shape=partialRectangle;html=1;whiteSpace=wrap;connectable=0;strokeColor=inherit;overflow=hidden;fillColor=none;top=0;left=0;bottom=0;right=0;pointerEvents=1;fontSize=16;" vertex="1" parent="Fjg43alI3TSpxmNCnaQL-67">
          <mxGeometry x="27" width="26" height="27" as="geometry">
            <mxRectangle width="26" height="27" as="alternateBounds" />
          </mxGeometry>
        </mxCell>
        <mxCell id="Fjg43alI3TSpxmNCnaQL-70" value="" style="shape=partialRectangle;html=1;whiteSpace=wrap;connectable=0;strokeColor=inherit;overflow=hidden;fillColor=none;top=0;left=0;bottom=0;right=0;pointerEvents=1;fontSize=16;" vertex="1" parent="Fjg43alI3TSpxmNCnaQL-67">
          <mxGeometry x="53" width="27" height="27" as="geometry">
            <mxRectangle width="27" height="27" as="alternateBounds" />
          </mxGeometry>
        </mxCell>
        <mxCell id="Fjg43alI3TSpxmNCnaQL-71" value="" style="shape=tableRow;horizontal=0;startSize=0;swimlaneHead=0;swimlaneBody=0;strokeColor=inherit;top=0;left=0;bottom=0;right=0;collapsible=0;dropTarget=0;fillColor=none;points=[[0,0.5],[1,0.5]];portConstraint=eastwest;fontSize=16;" vertex="1" parent="Fjg43alI3TSpxmNCnaQL-66">
          <mxGeometry y="27" width="80" height="26" as="geometry" />
        </mxCell>
        <mxCell id="Fjg43alI3TSpxmNCnaQL-72" value="" style="shape=partialRectangle;html=1;whiteSpace=wrap;connectable=0;strokeColor=inherit;overflow=hidden;fillColor=none;top=0;left=0;bottom=0;right=0;pointerEvents=1;fontSize=16;" vertex="1" parent="Fjg43alI3TSpxmNCnaQL-71">
          <mxGeometry width="27" height="26" as="geometry">
            <mxRectangle width="27" height="26" as="alternateBounds" />
          </mxGeometry>
        </mxCell>
        <mxCell id="Fjg43alI3TSpxmNCnaQL-73" value="" style="shape=partialRectangle;html=1;whiteSpace=wrap;connectable=0;strokeColor=inherit;overflow=hidden;fillColor=none;top=0;left=0;bottom=0;right=0;pointerEvents=1;fontSize=16;" vertex="1" parent="Fjg43alI3TSpxmNCnaQL-71">
          <mxGeometry x="27" width="26" height="26" as="geometry">
            <mxRectangle width="26" height="26" as="alternateBounds" />
          </mxGeometry>
        </mxCell>
        <mxCell id="Fjg43alI3TSpxmNCnaQL-74" value="" style="shape=partialRectangle;html=1;whiteSpace=wrap;connectable=0;strokeColor=inherit;overflow=hidden;fillColor=none;top=0;left=0;bottom=0;right=0;pointerEvents=1;fontSize=16;" vertex="1" parent="Fjg43alI3TSpxmNCnaQL-71">
          <mxGeometry x="53" width="27" height="26" as="geometry">
            <mxRectangle width="27" height="26" as="alternateBounds" />
          </mxGeometry>
        </mxCell>
        <mxCell id="Fjg43alI3TSpxmNCnaQL-75" value="" style="shape=tableRow;horizontal=0;startSize=0;swimlaneHead=0;swimlaneBody=0;strokeColor=inherit;top=0;left=0;bottom=0;right=0;collapsible=0;dropTarget=0;fillColor=none;points=[[0,0.5],[1,0.5]];portConstraint=eastwest;fontSize=16;" vertex="1" parent="Fjg43alI3TSpxmNCnaQL-66">
          <mxGeometry y="53" width="80" height="27" as="geometry" />
        </mxCell>
        <mxCell id="Fjg43alI3TSpxmNCnaQL-76" value="" style="shape=partialRectangle;html=1;whiteSpace=wrap;connectable=0;strokeColor=inherit;overflow=hidden;fillColor=none;top=0;left=0;bottom=0;right=0;pointerEvents=1;fontSize=16;" vertex="1" parent="Fjg43alI3TSpxmNCnaQL-75">
          <mxGeometry width="27" height="27" as="geometry">
            <mxRectangle width="27" height="27" as="alternateBounds" />
          </mxGeometry>
        </mxCell>
        <mxCell id="Fjg43alI3TSpxmNCnaQL-77" value="" style="shape=partialRectangle;html=1;whiteSpace=wrap;connectable=0;strokeColor=inherit;overflow=hidden;fillColor=none;top=0;left=0;bottom=0;right=0;pointerEvents=1;fontSize=16;" vertex="1" parent="Fjg43alI3TSpxmNCnaQL-75">
          <mxGeometry x="27" width="26" height="27" as="geometry">
            <mxRectangle width="26" height="27" as="alternateBounds" />
          </mxGeometry>
        </mxCell>
        <mxCell id="Fjg43alI3TSpxmNCnaQL-78" value="" style="shape=partialRectangle;html=1;whiteSpace=wrap;connectable=0;strokeColor=inherit;overflow=hidden;fillColor=none;top=0;left=0;bottom=0;right=0;pointerEvents=1;fontSize=16;" vertex="1" parent="Fjg43alI3TSpxmNCnaQL-75">
          <mxGeometry x="53" width="27" height="27" as="geometry">
            <mxRectangle width="27" height="27" as="alternateBounds" />
          </mxGeometry>
        </mxCell>
        <mxCell id="Fjg43alI3TSpxmNCnaQL-92" value="" style="shape=table;startSize=0;container=1;collapsible=0;childLayout=tableLayout;fontSize=16;" vertex="1" parent="1">
          <mxGeometry x="660" y="460" width="80" height="80" as="geometry" />
        </mxCell>
        <mxCell id="Fjg43alI3TSpxmNCnaQL-93" value="" style="shape=tableRow;horizontal=0;startSize=0;swimlaneHead=0;swimlaneBody=0;strokeColor=inherit;top=0;left=0;bottom=0;right=0;collapsible=0;dropTarget=0;fillColor=none;points=[[0,0.5],[1,0.5]];portConstraint=eastwest;fontSize=16;" vertex="1" parent="Fjg43alI3TSpxmNCnaQL-92">
          <mxGeometry width="80" height="27" as="geometry" />
        </mxCell>
        <mxCell id="Fjg43alI3TSpxmNCnaQL-94" value="" style="shape=partialRectangle;html=1;whiteSpace=wrap;connectable=0;strokeColor=inherit;overflow=hidden;fillColor=none;top=0;left=0;bottom=0;right=0;pointerEvents=1;fontSize=16;" vertex="1" parent="Fjg43alI3TSpxmNCnaQL-93">
          <mxGeometry width="27" height="27" as="geometry">
            <mxRectangle width="27" height="27" as="alternateBounds" />
          </mxGeometry>
        </mxCell>
        <mxCell id="Fjg43alI3TSpxmNCnaQL-95" value="I" style="shape=partialRectangle;html=1;whiteSpace=wrap;connectable=0;strokeColor=inherit;overflow=hidden;fillColor=none;top=0;left=0;bottom=0;right=0;pointerEvents=1;fontSize=16;" vertex="1" parent="Fjg43alI3TSpxmNCnaQL-93">
          <mxGeometry x="27" width="26" height="27" as="geometry">
            <mxRectangle width="26" height="27" as="alternateBounds" />
          </mxGeometry>
        </mxCell>
        <mxCell id="Fjg43alI3TSpxmNCnaQL-96" value="" style="shape=partialRectangle;html=1;whiteSpace=wrap;connectable=0;strokeColor=inherit;overflow=hidden;fillColor=none;top=0;left=0;bottom=0;right=0;pointerEvents=1;fontSize=16;" vertex="1" parent="Fjg43alI3TSpxmNCnaQL-93">
          <mxGeometry x="53" width="27" height="27" as="geometry">
            <mxRectangle width="27" height="27" as="alternateBounds" />
          </mxGeometry>
        </mxCell>
        <mxCell id="Fjg43alI3TSpxmNCnaQL-97" value="" style="shape=tableRow;horizontal=0;startSize=0;swimlaneHead=0;swimlaneBody=0;strokeColor=inherit;top=0;left=0;bottom=0;right=0;collapsible=0;dropTarget=0;fillColor=none;points=[[0,0.5],[1,0.5]];portConstraint=eastwest;fontSize=16;" vertex="1" parent="Fjg43alI3TSpxmNCnaQL-92">
          <mxGeometry y="27" width="80" height="26" as="geometry" />
        </mxCell>
        <mxCell id="Fjg43alI3TSpxmNCnaQL-98" value="" style="shape=partialRectangle;html=1;whiteSpace=wrap;connectable=0;strokeColor=inherit;overflow=hidden;fillColor=none;top=0;left=0;bottom=0;right=0;pointerEvents=1;fontSize=16;" vertex="1" parent="Fjg43alI3TSpxmNCnaQL-97">
          <mxGeometry width="27" height="26" as="geometry">
            <mxRectangle width="27" height="26" as="alternateBounds" />
          </mxGeometry>
        </mxCell>
        <mxCell id="Fjg43alI3TSpxmNCnaQL-99" value="" style="shape=partialRectangle;html=1;whiteSpace=wrap;connectable=0;strokeColor=inherit;overflow=hidden;fillColor=none;top=0;left=0;bottom=0;right=0;pointerEvents=1;fontSize=16;" vertex="1" parent="Fjg43alI3TSpxmNCnaQL-97">
          <mxGeometry x="27" width="26" height="26" as="geometry">
            <mxRectangle width="26" height="26" as="alternateBounds" />
          </mxGeometry>
        </mxCell>
        <mxCell id="Fjg43alI3TSpxmNCnaQL-100" value="" style="shape=partialRectangle;html=1;whiteSpace=wrap;connectable=0;strokeColor=inherit;overflow=hidden;fillColor=none;top=0;left=0;bottom=0;right=0;pointerEvents=1;fontSize=16;" vertex="1" parent="Fjg43alI3TSpxmNCnaQL-97">
          <mxGeometry x="53" width="27" height="26" as="geometry">
            <mxRectangle width="27" height="26" as="alternateBounds" />
          </mxGeometry>
        </mxCell>
        <mxCell id="Fjg43alI3TSpxmNCnaQL-101" value="" style="shape=tableRow;horizontal=0;startSize=0;swimlaneHead=0;swimlaneBody=0;strokeColor=inherit;top=0;left=0;bottom=0;right=0;collapsible=0;dropTarget=0;fillColor=none;points=[[0,0.5],[1,0.5]];portConstraint=eastwest;fontSize=16;" vertex="1" parent="Fjg43alI3TSpxmNCnaQL-92">
          <mxGeometry y="53" width="80" height="27" as="geometry" />
        </mxCell>
        <mxCell id="Fjg43alI3TSpxmNCnaQL-102" value="" style="shape=partialRectangle;html=1;whiteSpace=wrap;connectable=0;strokeColor=inherit;overflow=hidden;fillColor=none;top=0;left=0;bottom=0;right=0;pointerEvents=1;fontSize=16;" vertex="1" parent="Fjg43alI3TSpxmNCnaQL-101">
          <mxGeometry width="27" height="27" as="geometry">
            <mxRectangle width="27" height="27" as="alternateBounds" />
          </mxGeometry>
        </mxCell>
        <mxCell id="Fjg43alI3TSpxmNCnaQL-103" value="" style="shape=partialRectangle;html=1;whiteSpace=wrap;connectable=0;strokeColor=inherit;overflow=hidden;fillColor=none;top=0;left=0;bottom=0;right=0;pointerEvents=1;fontSize=16;" vertex="1" parent="Fjg43alI3TSpxmNCnaQL-101">
          <mxGeometry x="27" width="26" height="27" as="geometry">
            <mxRectangle width="26" height="27" as="alternateBounds" />
          </mxGeometry>
        </mxCell>
        <mxCell id="Fjg43alI3TSpxmNCnaQL-104" value="" style="shape=partialRectangle;html=1;whiteSpace=wrap;connectable=0;strokeColor=inherit;overflow=hidden;fillColor=none;top=0;left=0;bottom=0;right=0;pointerEvents=1;fontSize=16;" vertex="1" parent="Fjg43alI3TSpxmNCnaQL-101">
          <mxGeometry x="53" width="27" height="27" as="geometry">
            <mxRectangle width="27" height="27" as="alternateBounds" />
          </mxGeometry>
        </mxCell>
        <mxCell id="Fjg43alI3TSpxmNCnaQL-79" value="" style="shape=table;startSize=0;container=1;collapsible=0;childLayout=tableLayout;fontSize=16;" vertex="1" parent="1">
          <mxGeometry x="350" y="570" width="80" height="80" as="geometry" />
        </mxCell>
        <mxCell id="Fjg43alI3TSpxmNCnaQL-80" value="" style="shape=tableRow;horizontal=0;startSize=0;swimlaneHead=0;swimlaneBody=0;strokeColor=inherit;top=0;left=0;bottom=0;right=0;collapsible=0;dropTarget=0;fillColor=none;points=[[0,0.5],[1,0.5]];portConstraint=eastwest;fontSize=16;" vertex="1" parent="Fjg43alI3TSpxmNCnaQL-79">
          <mxGeometry width="80" height="27" as="geometry" />
        </mxCell>
        <mxCell id="Fjg43alI3TSpxmNCnaQL-81" value="" style="shape=partialRectangle;html=1;whiteSpace=wrap;connectable=0;strokeColor=inherit;overflow=hidden;fillColor=none;top=0;left=0;bottom=0;right=0;pointerEvents=1;fontSize=16;" vertex="1" parent="Fjg43alI3TSpxmNCnaQL-80">
          <mxGeometry width="27" height="27" as="geometry">
            <mxRectangle width="27" height="27" as="alternateBounds" />
          </mxGeometry>
        </mxCell>
        <mxCell id="Fjg43alI3TSpxmNCnaQL-82" value="F" style="shape=partialRectangle;html=1;whiteSpace=wrap;connectable=0;strokeColor=inherit;overflow=hidden;fillColor=none;top=0;left=0;bottom=0;right=0;pointerEvents=1;fontSize=16;" vertex="1" parent="Fjg43alI3TSpxmNCnaQL-80">
          <mxGeometry x="27" width="26" height="27" as="geometry">
            <mxRectangle width="26" height="27" as="alternateBounds" />
          </mxGeometry>
        </mxCell>
        <mxCell id="Fjg43alI3TSpxmNCnaQL-83" value="" style="shape=partialRectangle;html=1;whiteSpace=wrap;connectable=0;strokeColor=inherit;overflow=hidden;fillColor=none;top=0;left=0;bottom=0;right=0;pointerEvents=1;fontSize=16;" vertex="1" parent="Fjg43alI3TSpxmNCnaQL-80">
          <mxGeometry x="53" width="27" height="27" as="geometry">
            <mxRectangle width="27" height="27" as="alternateBounds" />
          </mxGeometry>
        </mxCell>
        <mxCell id="Fjg43alI3TSpxmNCnaQL-84" value="" style="shape=tableRow;horizontal=0;startSize=0;swimlaneHead=0;swimlaneBody=0;strokeColor=inherit;top=0;left=0;bottom=0;right=0;collapsible=0;dropTarget=0;fillColor=none;points=[[0,0.5],[1,0.5]];portConstraint=eastwest;fontSize=16;" vertex="1" parent="Fjg43alI3TSpxmNCnaQL-79">
          <mxGeometry y="27" width="80" height="26" as="geometry" />
        </mxCell>
        <mxCell id="Fjg43alI3TSpxmNCnaQL-85" value="" style="shape=partialRectangle;html=1;whiteSpace=wrap;connectable=0;strokeColor=inherit;overflow=hidden;fillColor=none;top=0;left=0;bottom=0;right=0;pointerEvents=1;fontSize=16;" vertex="1" parent="Fjg43alI3TSpxmNCnaQL-84">
          <mxGeometry width="27" height="26" as="geometry">
            <mxRectangle width="27" height="26" as="alternateBounds" />
          </mxGeometry>
        </mxCell>
        <mxCell id="Fjg43alI3TSpxmNCnaQL-86" value="" style="shape=partialRectangle;html=1;whiteSpace=wrap;connectable=0;strokeColor=inherit;overflow=hidden;fillColor=none;top=0;left=0;bottom=0;right=0;pointerEvents=1;fontSize=16;" vertex="1" parent="Fjg43alI3TSpxmNCnaQL-84">
          <mxGeometry x="27" width="26" height="26" as="geometry">
            <mxRectangle width="26" height="26" as="alternateBounds" />
          </mxGeometry>
        </mxCell>
        <mxCell id="Fjg43alI3TSpxmNCnaQL-87" value="" style="shape=partialRectangle;html=1;whiteSpace=wrap;connectable=0;strokeColor=inherit;overflow=hidden;fillColor=none;top=0;left=0;bottom=0;right=0;pointerEvents=1;fontSize=16;" vertex="1" parent="Fjg43alI3TSpxmNCnaQL-84">
          <mxGeometry x="53" width="27" height="26" as="geometry">
            <mxRectangle width="27" height="26" as="alternateBounds" />
          </mxGeometry>
        </mxCell>
        <mxCell id="Fjg43alI3TSpxmNCnaQL-88" value="" style="shape=tableRow;horizontal=0;startSize=0;swimlaneHead=0;swimlaneBody=0;strokeColor=inherit;top=0;left=0;bottom=0;right=0;collapsible=0;dropTarget=0;fillColor=none;points=[[0,0.5],[1,0.5]];portConstraint=eastwest;fontSize=16;" vertex="1" parent="Fjg43alI3TSpxmNCnaQL-79">
          <mxGeometry y="53" width="80" height="27" as="geometry" />
        </mxCell>
        <mxCell id="Fjg43alI3TSpxmNCnaQL-89" value="" style="shape=partialRectangle;html=1;whiteSpace=wrap;connectable=0;strokeColor=inherit;overflow=hidden;fillColor=none;top=0;left=0;bottom=0;right=0;pointerEvents=1;fontSize=16;" vertex="1" parent="Fjg43alI3TSpxmNCnaQL-88">
          <mxGeometry width="27" height="27" as="geometry">
            <mxRectangle width="27" height="27" as="alternateBounds" />
          </mxGeometry>
        </mxCell>
        <mxCell id="Fjg43alI3TSpxmNCnaQL-90" value="" style="shape=partialRectangle;html=1;whiteSpace=wrap;connectable=0;strokeColor=inherit;overflow=hidden;fillColor=none;top=0;left=0;bottom=0;right=0;pointerEvents=1;fontSize=16;" vertex="1" parent="Fjg43alI3TSpxmNCnaQL-88">
          <mxGeometry x="27" width="26" height="27" as="geometry">
            <mxRectangle width="26" height="27" as="alternateBounds" />
          </mxGeometry>
        </mxCell>
        <mxCell id="Fjg43alI3TSpxmNCnaQL-91" value="" style="shape=partialRectangle;html=1;whiteSpace=wrap;connectable=0;strokeColor=inherit;overflow=hidden;fillColor=none;top=0;left=0;bottom=0;right=0;pointerEvents=1;fontSize=16;" vertex="1" parent="Fjg43alI3TSpxmNCnaQL-88">
          <mxGeometry x="53" width="27" height="27" as="geometry">
            <mxRectangle width="27" height="27" as="alternateBounds" />
          </mxGeometry>
        </mxCell>
        <mxCell id="Fjg43alI3TSpxmNCnaQL-118" value="" style="shape=table;startSize=0;container=1;collapsible=0;childLayout=tableLayout;fontSize=16;" vertex="1" parent="1">
          <mxGeometry x="520" y="460" width="80" height="80" as="geometry" />
        </mxCell>
        <mxCell id="Fjg43alI3TSpxmNCnaQL-119" value="" style="shape=tableRow;horizontal=0;startSize=0;swimlaneHead=0;swimlaneBody=0;strokeColor=inherit;top=0;left=0;bottom=0;right=0;collapsible=0;dropTarget=0;fillColor=none;points=[[0,0.5],[1,0.5]];portConstraint=eastwest;fontSize=16;" vertex="1" parent="Fjg43alI3TSpxmNCnaQL-118">
          <mxGeometry width="80" height="27" as="geometry" />
        </mxCell>
        <mxCell id="Fjg43alI3TSpxmNCnaQL-120" value="" style="shape=partialRectangle;html=1;whiteSpace=wrap;connectable=0;strokeColor=inherit;overflow=hidden;fillColor=none;top=0;left=0;bottom=0;right=0;pointerEvents=1;fontSize=16;" vertex="1" parent="Fjg43alI3TSpxmNCnaQL-119">
          <mxGeometry width="27" height="27" as="geometry">
            <mxRectangle width="27" height="27" as="alternateBounds" />
          </mxGeometry>
        </mxCell>
        <mxCell id="Fjg43alI3TSpxmNCnaQL-121" value="G" style="shape=partialRectangle;html=1;whiteSpace=wrap;connectable=0;strokeColor=inherit;overflow=hidden;fillColor=none;top=0;left=0;bottom=0;right=0;pointerEvents=1;fontSize=16;" vertex="1" parent="Fjg43alI3TSpxmNCnaQL-119">
          <mxGeometry x="27" width="26" height="27" as="geometry">
            <mxRectangle width="26" height="27" as="alternateBounds" />
          </mxGeometry>
        </mxCell>
        <mxCell id="Fjg43alI3TSpxmNCnaQL-122" value="" style="shape=partialRectangle;html=1;whiteSpace=wrap;connectable=0;strokeColor=inherit;overflow=hidden;fillColor=none;top=0;left=0;bottom=0;right=0;pointerEvents=1;fontSize=16;" vertex="1" parent="Fjg43alI3TSpxmNCnaQL-119">
          <mxGeometry x="53" width="27" height="27" as="geometry">
            <mxRectangle width="27" height="27" as="alternateBounds" />
          </mxGeometry>
        </mxCell>
        <mxCell id="Fjg43alI3TSpxmNCnaQL-123" value="" style="shape=tableRow;horizontal=0;startSize=0;swimlaneHead=0;swimlaneBody=0;strokeColor=inherit;top=0;left=0;bottom=0;right=0;collapsible=0;dropTarget=0;fillColor=none;points=[[0,0.5],[1,0.5]];portConstraint=eastwest;fontSize=16;" vertex="1" parent="Fjg43alI3TSpxmNCnaQL-118">
          <mxGeometry y="27" width="80" height="26" as="geometry" />
        </mxCell>
        <mxCell id="Fjg43alI3TSpxmNCnaQL-124" value="" style="shape=partialRectangle;html=1;whiteSpace=wrap;connectable=0;strokeColor=inherit;overflow=hidden;fillColor=none;top=0;left=0;bottom=0;right=0;pointerEvents=1;fontSize=16;" vertex="1" parent="Fjg43alI3TSpxmNCnaQL-123">
          <mxGeometry width="27" height="26" as="geometry">
            <mxRectangle width="27" height="26" as="alternateBounds" />
          </mxGeometry>
        </mxCell>
        <mxCell id="Fjg43alI3TSpxmNCnaQL-125" value="" style="shape=partialRectangle;html=1;whiteSpace=wrap;connectable=0;strokeColor=inherit;overflow=hidden;fillColor=none;top=0;left=0;bottom=0;right=0;pointerEvents=1;fontSize=16;" vertex="1" parent="Fjg43alI3TSpxmNCnaQL-123">
          <mxGeometry x="27" width="26" height="26" as="geometry">
            <mxRectangle width="26" height="26" as="alternateBounds" />
          </mxGeometry>
        </mxCell>
        <mxCell id="Fjg43alI3TSpxmNCnaQL-126" value="" style="shape=partialRectangle;html=1;whiteSpace=wrap;connectable=0;strokeColor=inherit;overflow=hidden;fillColor=none;top=0;left=0;bottom=0;right=0;pointerEvents=1;fontSize=16;" vertex="1" parent="Fjg43alI3TSpxmNCnaQL-123">
          <mxGeometry x="53" width="27" height="26" as="geometry">
            <mxRectangle width="27" height="26" as="alternateBounds" />
          </mxGeometry>
        </mxCell>
        <mxCell id="Fjg43alI3TSpxmNCnaQL-127" value="" style="shape=tableRow;horizontal=0;startSize=0;swimlaneHead=0;swimlaneBody=0;strokeColor=inherit;top=0;left=0;bottom=0;right=0;collapsible=0;dropTarget=0;fillColor=none;points=[[0,0.5],[1,0.5]];portConstraint=eastwest;fontSize=16;" vertex="1" parent="Fjg43alI3TSpxmNCnaQL-118">
          <mxGeometry y="53" width="80" height="27" as="geometry" />
        </mxCell>
        <mxCell id="Fjg43alI3TSpxmNCnaQL-128" value="" style="shape=partialRectangle;html=1;whiteSpace=wrap;connectable=0;strokeColor=inherit;overflow=hidden;fillColor=none;top=0;left=0;bottom=0;right=0;pointerEvents=1;fontSize=16;" vertex="1" parent="Fjg43alI3TSpxmNCnaQL-127">
          <mxGeometry width="27" height="27" as="geometry">
            <mxRectangle width="27" height="27" as="alternateBounds" />
          </mxGeometry>
        </mxCell>
        <mxCell id="Fjg43alI3TSpxmNCnaQL-129" value="" style="shape=partialRectangle;html=1;whiteSpace=wrap;connectable=0;strokeColor=inherit;overflow=hidden;fillColor=none;top=0;left=0;bottom=0;right=0;pointerEvents=1;fontSize=16;" vertex="1" parent="Fjg43alI3TSpxmNCnaQL-127">
          <mxGeometry x="27" width="26" height="27" as="geometry">
            <mxRectangle width="26" height="27" as="alternateBounds" />
          </mxGeometry>
        </mxCell>
        <mxCell id="Fjg43alI3TSpxmNCnaQL-130" value="" style="shape=partialRectangle;html=1;whiteSpace=wrap;connectable=0;strokeColor=inherit;overflow=hidden;fillColor=none;top=0;left=0;bottom=0;right=0;pointerEvents=1;fontSize=16;" vertex="1" parent="Fjg43alI3TSpxmNCnaQL-127">
          <mxGeometry x="53" width="27" height="27" as="geometry">
            <mxRectangle width="27" height="27" as="alternateBounds" />
          </mxGeometry>
        </mxCell>
        <mxCell id="Fjg43alI3TSpxmNCnaQL-131" value="" style="shape=table;startSize=0;container=1;collapsible=0;childLayout=tableLayout;fontSize=16;" vertex="1" parent="1">
          <mxGeometry x="760" y="240" width="80" height="80" as="geometry" />
        </mxCell>
        <mxCell id="Fjg43alI3TSpxmNCnaQL-132" value="" style="shape=tableRow;horizontal=0;startSize=0;swimlaneHead=0;swimlaneBody=0;strokeColor=inherit;top=0;left=0;bottom=0;right=0;collapsible=0;dropTarget=0;fillColor=none;points=[[0,0.5],[1,0.5]];portConstraint=eastwest;fontSize=16;" vertex="1" parent="Fjg43alI3TSpxmNCnaQL-131">
          <mxGeometry width="80" height="27" as="geometry" />
        </mxCell>
        <mxCell id="Fjg43alI3TSpxmNCnaQL-133" value="" style="shape=partialRectangle;html=1;whiteSpace=wrap;connectable=0;strokeColor=inherit;overflow=hidden;fillColor=none;top=0;left=0;bottom=0;right=0;pointerEvents=1;fontSize=16;" vertex="1" parent="Fjg43alI3TSpxmNCnaQL-132">
          <mxGeometry width="27" height="27" as="geometry">
            <mxRectangle width="27" height="27" as="alternateBounds" />
          </mxGeometry>
        </mxCell>
        <mxCell id="Fjg43alI3TSpxmNCnaQL-134" value="J" style="shape=partialRectangle;html=1;whiteSpace=wrap;connectable=0;strokeColor=inherit;overflow=hidden;fillColor=none;top=0;left=0;bottom=0;right=0;pointerEvents=1;fontSize=16;" vertex="1" parent="Fjg43alI3TSpxmNCnaQL-132">
          <mxGeometry x="27" width="26" height="27" as="geometry">
            <mxRectangle width="26" height="27" as="alternateBounds" />
          </mxGeometry>
        </mxCell>
        <mxCell id="Fjg43alI3TSpxmNCnaQL-135" value="" style="shape=partialRectangle;html=1;whiteSpace=wrap;connectable=0;strokeColor=inherit;overflow=hidden;fillColor=none;top=0;left=0;bottom=0;right=0;pointerEvents=1;fontSize=16;" vertex="1" parent="Fjg43alI3TSpxmNCnaQL-132">
          <mxGeometry x="53" width="27" height="27" as="geometry">
            <mxRectangle width="27" height="27" as="alternateBounds" />
          </mxGeometry>
        </mxCell>
        <mxCell id="Fjg43alI3TSpxmNCnaQL-136" value="" style="shape=tableRow;horizontal=0;startSize=0;swimlaneHead=0;swimlaneBody=0;strokeColor=inherit;top=0;left=0;bottom=0;right=0;collapsible=0;dropTarget=0;fillColor=none;points=[[0,0.5],[1,0.5]];portConstraint=eastwest;fontSize=16;" vertex="1" parent="Fjg43alI3TSpxmNCnaQL-131">
          <mxGeometry y="27" width="80" height="26" as="geometry" />
        </mxCell>
        <mxCell id="Fjg43alI3TSpxmNCnaQL-137" value="" style="shape=partialRectangle;html=1;whiteSpace=wrap;connectable=0;strokeColor=inherit;overflow=hidden;fillColor=none;top=0;left=0;bottom=0;right=0;pointerEvents=1;fontSize=16;" vertex="1" parent="Fjg43alI3TSpxmNCnaQL-136">
          <mxGeometry width="27" height="26" as="geometry">
            <mxRectangle width="27" height="26" as="alternateBounds" />
          </mxGeometry>
        </mxCell>
        <mxCell id="Fjg43alI3TSpxmNCnaQL-138" value="" style="shape=partialRectangle;html=1;whiteSpace=wrap;connectable=0;strokeColor=inherit;overflow=hidden;fillColor=none;top=0;left=0;bottom=0;right=0;pointerEvents=1;fontSize=16;" vertex="1" parent="Fjg43alI3TSpxmNCnaQL-136">
          <mxGeometry x="27" width="26" height="26" as="geometry">
            <mxRectangle width="26" height="26" as="alternateBounds" />
          </mxGeometry>
        </mxCell>
        <mxCell id="Fjg43alI3TSpxmNCnaQL-139" value="" style="shape=partialRectangle;html=1;whiteSpace=wrap;connectable=0;strokeColor=inherit;overflow=hidden;fillColor=none;top=0;left=0;bottom=0;right=0;pointerEvents=1;fontSize=16;" vertex="1" parent="Fjg43alI3TSpxmNCnaQL-136">
          <mxGeometry x="53" width="27" height="26" as="geometry">
            <mxRectangle width="27" height="26" as="alternateBounds" />
          </mxGeometry>
        </mxCell>
        <mxCell id="Fjg43alI3TSpxmNCnaQL-140" value="" style="shape=tableRow;horizontal=0;startSize=0;swimlaneHead=0;swimlaneBody=0;strokeColor=inherit;top=0;left=0;bottom=0;right=0;collapsible=0;dropTarget=0;fillColor=none;points=[[0,0.5],[1,0.5]];portConstraint=eastwest;fontSize=16;" vertex="1" parent="Fjg43alI3TSpxmNCnaQL-131">
          <mxGeometry y="53" width="80" height="27" as="geometry" />
        </mxCell>
        <mxCell id="Fjg43alI3TSpxmNCnaQL-141" value="" style="shape=partialRectangle;html=1;whiteSpace=wrap;connectable=0;strokeColor=inherit;overflow=hidden;fillColor=none;top=0;left=0;bottom=0;right=0;pointerEvents=1;fontSize=16;" vertex="1" parent="Fjg43alI3TSpxmNCnaQL-140">
          <mxGeometry width="27" height="27" as="geometry">
            <mxRectangle width="27" height="27" as="alternateBounds" />
          </mxGeometry>
        </mxCell>
        <mxCell id="Fjg43alI3TSpxmNCnaQL-142" value="" style="shape=partialRectangle;html=1;whiteSpace=wrap;connectable=0;strokeColor=inherit;overflow=hidden;fillColor=none;top=0;left=0;bottom=0;right=0;pointerEvents=1;fontSize=16;" vertex="1" parent="Fjg43alI3TSpxmNCnaQL-140">
          <mxGeometry x="27" width="26" height="27" as="geometry">
            <mxRectangle width="26" height="27" as="alternateBounds" />
          </mxGeometry>
        </mxCell>
        <mxCell id="Fjg43alI3TSpxmNCnaQL-143" value="" style="shape=partialRectangle;html=1;whiteSpace=wrap;connectable=0;strokeColor=inherit;overflow=hidden;fillColor=none;top=0;left=0;bottom=0;right=0;pointerEvents=1;fontSize=16;" vertex="1" parent="Fjg43alI3TSpxmNCnaQL-140">
          <mxGeometry x="53" width="27" height="27" as="geometry">
            <mxRectangle width="27" height="27" as="alternateBounds" />
          </mxGeometry>
        </mxCell>
        <mxCell id="Fjg43alI3TSpxmNCnaQL-144" value="" style="shape=table;startSize=0;container=1;collapsible=0;childLayout=tableLayout;fontSize=16;" vertex="1" parent="1">
          <mxGeometry x="890" y="240" width="80" height="80" as="geometry" />
        </mxCell>
        <mxCell id="Fjg43alI3TSpxmNCnaQL-145" value="" style="shape=tableRow;horizontal=0;startSize=0;swimlaneHead=0;swimlaneBody=0;strokeColor=inherit;top=0;left=0;bottom=0;right=0;collapsible=0;dropTarget=0;fillColor=none;points=[[0,0.5],[1,0.5]];portConstraint=eastwest;fontSize=16;" vertex="1" parent="Fjg43alI3TSpxmNCnaQL-144">
          <mxGeometry width="80" height="27" as="geometry" />
        </mxCell>
        <mxCell id="Fjg43alI3TSpxmNCnaQL-146" value="" style="shape=partialRectangle;html=1;whiteSpace=wrap;connectable=0;strokeColor=inherit;overflow=hidden;fillColor=none;top=0;left=0;bottom=0;right=0;pointerEvents=1;fontSize=16;" vertex="1" parent="Fjg43alI3TSpxmNCnaQL-145">
          <mxGeometry width="27" height="27" as="geometry">
            <mxRectangle width="27" height="27" as="alternateBounds" />
          </mxGeometry>
        </mxCell>
        <mxCell id="Fjg43alI3TSpxmNCnaQL-147" value="K" style="shape=partialRectangle;html=1;whiteSpace=wrap;connectable=0;strokeColor=inherit;overflow=hidden;fillColor=none;top=0;left=0;bottom=0;right=0;pointerEvents=1;fontSize=16;" vertex="1" parent="Fjg43alI3TSpxmNCnaQL-145">
          <mxGeometry x="27" width="26" height="27" as="geometry">
            <mxRectangle width="26" height="27" as="alternateBounds" />
          </mxGeometry>
        </mxCell>
        <mxCell id="Fjg43alI3TSpxmNCnaQL-148" value="" style="shape=partialRectangle;html=1;whiteSpace=wrap;connectable=0;strokeColor=inherit;overflow=hidden;fillColor=none;top=0;left=0;bottom=0;right=0;pointerEvents=1;fontSize=16;" vertex="1" parent="Fjg43alI3TSpxmNCnaQL-145">
          <mxGeometry x="53" width="27" height="27" as="geometry">
            <mxRectangle width="27" height="27" as="alternateBounds" />
          </mxGeometry>
        </mxCell>
        <mxCell id="Fjg43alI3TSpxmNCnaQL-149" value="" style="shape=tableRow;horizontal=0;startSize=0;swimlaneHead=0;swimlaneBody=0;strokeColor=inherit;top=0;left=0;bottom=0;right=0;collapsible=0;dropTarget=0;fillColor=none;points=[[0,0.5],[1,0.5]];portConstraint=eastwest;fontSize=16;" vertex="1" parent="Fjg43alI3TSpxmNCnaQL-144">
          <mxGeometry y="27" width="80" height="26" as="geometry" />
        </mxCell>
        <mxCell id="Fjg43alI3TSpxmNCnaQL-150" value="" style="shape=partialRectangle;html=1;whiteSpace=wrap;connectable=0;strokeColor=inherit;overflow=hidden;fillColor=none;top=0;left=0;bottom=0;right=0;pointerEvents=1;fontSize=16;" vertex="1" parent="Fjg43alI3TSpxmNCnaQL-149">
          <mxGeometry width="27" height="26" as="geometry">
            <mxRectangle width="27" height="26" as="alternateBounds" />
          </mxGeometry>
        </mxCell>
        <mxCell id="Fjg43alI3TSpxmNCnaQL-151" value="" style="shape=partialRectangle;html=1;whiteSpace=wrap;connectable=0;strokeColor=inherit;overflow=hidden;fillColor=none;top=0;left=0;bottom=0;right=0;pointerEvents=1;fontSize=16;" vertex="1" parent="Fjg43alI3TSpxmNCnaQL-149">
          <mxGeometry x="27" width="26" height="26" as="geometry">
            <mxRectangle width="26" height="26" as="alternateBounds" />
          </mxGeometry>
        </mxCell>
        <mxCell id="Fjg43alI3TSpxmNCnaQL-152" value="" style="shape=partialRectangle;html=1;whiteSpace=wrap;connectable=0;strokeColor=inherit;overflow=hidden;fillColor=none;top=0;left=0;bottom=0;right=0;pointerEvents=1;fontSize=16;" vertex="1" parent="Fjg43alI3TSpxmNCnaQL-149">
          <mxGeometry x="53" width="27" height="26" as="geometry">
            <mxRectangle width="27" height="26" as="alternateBounds" />
          </mxGeometry>
        </mxCell>
        <mxCell id="Fjg43alI3TSpxmNCnaQL-153" value="" style="shape=tableRow;horizontal=0;startSize=0;swimlaneHead=0;swimlaneBody=0;strokeColor=inherit;top=0;left=0;bottom=0;right=0;collapsible=0;dropTarget=0;fillColor=none;points=[[0,0.5],[1,0.5]];portConstraint=eastwest;fontSize=16;" vertex="1" parent="Fjg43alI3TSpxmNCnaQL-144">
          <mxGeometry y="53" width="80" height="27" as="geometry" />
        </mxCell>
        <mxCell id="Fjg43alI3TSpxmNCnaQL-154" value="" style="shape=partialRectangle;html=1;whiteSpace=wrap;connectable=0;strokeColor=inherit;overflow=hidden;fillColor=none;top=0;left=0;bottom=0;right=0;pointerEvents=1;fontSize=16;" vertex="1" parent="Fjg43alI3TSpxmNCnaQL-153">
          <mxGeometry width="27" height="27" as="geometry">
            <mxRectangle width="27" height="27" as="alternateBounds" />
          </mxGeometry>
        </mxCell>
        <mxCell id="Fjg43alI3TSpxmNCnaQL-155" value="" style="shape=partialRectangle;html=1;whiteSpace=wrap;connectable=0;strokeColor=inherit;overflow=hidden;fillColor=none;top=0;left=0;bottom=0;right=0;pointerEvents=1;fontSize=16;" vertex="1" parent="Fjg43alI3TSpxmNCnaQL-153">
          <mxGeometry x="27" width="26" height="27" as="geometry">
            <mxRectangle width="26" height="27" as="alternateBounds" />
          </mxGeometry>
        </mxCell>
        <mxCell id="Fjg43alI3TSpxmNCnaQL-156" value="" style="shape=partialRectangle;html=1;whiteSpace=wrap;connectable=0;strokeColor=inherit;overflow=hidden;fillColor=none;top=0;left=0;bottom=0;right=0;pointerEvents=1;fontSize=16;" vertex="1" parent="Fjg43alI3TSpxmNCnaQL-153">
          <mxGeometry x="53" width="27" height="27" as="geometry">
            <mxRectangle width="27" height="27" as="alternateBounds" />
          </mxGeometry>
        </mxCell>
        <mxCell id="Fjg43alI3TSpxmNCnaQL-157" value="" style="endArrow=classic;html=1;rounded=0;exitX=0.996;exitY=0.025;exitDx=0;exitDy=0;exitPerimeter=0;entryX=0;entryY=0.5;entryDx=0;entryDy=0;" edge="1" parent="1" source="Fjg43alI3TSpxmNCnaQL-2" target="Fjg43alI3TSpxmNCnaQL-36">
          <mxGeometry width="50" height="50" relative="1" as="geometry">
            <mxPoint x="100" y="320" as="sourcePoint" />
            <mxPoint x="150" y="270" as="targetPoint" />
          </mxGeometry>
        </mxCell>
        <mxCell id="Fjg43alI3TSpxmNCnaQL-158" value="" style="endArrow=classic;html=1;rounded=0;exitX=1;exitY=0.5;exitDx=0;exitDy=0;entryX=-0.005;entryY=0.457;entryDx=0;entryDy=0;entryPerimeter=0;" edge="1" parent="1" source="Fjg43alI3TSpxmNCnaQL-6" target="Fjg43alI3TSpxmNCnaQL-58">
          <mxGeometry width="50" height="50" relative="1" as="geometry">
            <mxPoint x="120" y="371" as="sourcePoint" />
            <mxPoint x="170" y="430" as="targetPoint" />
          </mxGeometry>
        </mxCell>
        <mxCell id="Fjg43alI3TSpxmNCnaQL-159" value="" style="endArrow=classic;html=1;rounded=0;exitX=1.008;exitY=0.975;exitDx=0;exitDy=0;exitPerimeter=0;entryX=-0.005;entryY=-0.024;entryDx=0;entryDy=0;entryPerimeter=0;" edge="1" parent="1" source="Fjg43alI3TSpxmNCnaQL-10" target="Fjg43alI3TSpxmNCnaQL-41">
          <mxGeometry width="50" height="50" relative="1" as="geometry">
            <mxPoint x="120" y="410" as="sourcePoint" />
            <mxPoint x="170" y="500" as="targetPoint" />
          </mxGeometry>
        </mxCell>
        <mxCell id="Fjg43alI3TSpxmNCnaQL-160" value="" style="endArrow=classic;html=1;rounded=0;exitX=1;exitY=0.5;exitDx=0;exitDy=0;entryX=0;entryY=0;entryDx=0;entryDy=0;" edge="1" parent="1" target="Fjg43alI3TSpxmNCnaQL-66">
          <mxGeometry width="50" height="50" relative="1" as="geometry">
            <mxPoint x="110" y="560" as="sourcePoint" />
            <mxPoint x="180" y="580" as="targetPoint" />
          </mxGeometry>
        </mxCell>
        <mxCell id="Fjg43alI3TSpxmNCnaQL-161" value="" style="endArrow=classic;html=1;rounded=0;exitX=1;exitY=0.5;exitDx=0;exitDy=0;entryX=0;entryY=0.5;entryDx=0;entryDy=0;" edge="1" parent="1" target="Fjg43alI3TSpxmNCnaQL-80">
          <mxGeometry width="50" height="50" relative="1" as="geometry">
            <mxPoint x="260" y="540" as="sourcePoint" />
            <mxPoint x="330" y="560" as="targetPoint" />
          </mxGeometry>
        </mxCell>
        <mxCell id="Fjg43alI3TSpxmNCnaQL-162" value="" style="endArrow=classic;html=1;rounded=0;exitX=1;exitY=0.5;exitDx=0;exitDy=0;entryX=0;entryY=0.5;entryDx=0;entryDy=0;" edge="1" parent="1" target="Fjg43alI3TSpxmNCnaQL-88">
          <mxGeometry width="50" height="50" relative="1" as="geometry">
            <mxPoint x="260" y="660" as="sourcePoint" />
            <mxPoint x="330" y="680" as="targetPoint" />
          </mxGeometry>
        </mxCell>
        <mxCell id="Fjg43alI3TSpxmNCnaQL-163" value="" style="endArrow=classic;html=1;rounded=0;exitX=1;exitY=0.5;exitDx=0;exitDy=0;entryX=0;entryY=0.5;entryDx=0;entryDy=0;" edge="1" parent="1" target="Fjg43alI3TSpxmNCnaQL-127">
          <mxGeometry width="50" height="50" relative="1" as="geometry">
            <mxPoint x="430" y="610" as="sourcePoint" />
            <mxPoint x="500" y="630" as="targetPoint" />
          </mxGeometry>
        </mxCell>
        <mxCell id="Fjg43alI3TSpxmNCnaQL-164" value="" style="endArrow=classic;html=1;rounded=0;exitX=1;exitY=0.5;exitDx=0;exitDy=0;entryX=0;entryY=0.5;entryDx=0;entryDy=0;" edge="1" parent="1" target="Fjg43alI3TSpxmNCnaQL-119">
          <mxGeometry width="50" height="50" relative="1" as="geometry">
            <mxPoint x="260" y="420" as="sourcePoint" />
            <mxPoint x="330" y="440" as="targetPoint" />
          </mxGeometry>
        </mxCell>
        <mxCell id="Fjg43alI3TSpxmNCnaQL-166" value="" style="endArrow=classic;html=1;rounded=0;exitX=1;exitY=0.5;exitDx=0;exitDy=0;entryX=0;entryY=0.5;entryDx=0;entryDy=0;" edge="1" parent="1" target="Fjg43alI3TSpxmNCnaQL-97">
          <mxGeometry width="50" height="50" relative="1" as="geometry">
            <mxPoint x="600" y="500" as="sourcePoint" />
            <mxPoint x="670" y="520" as="targetPoint" />
          </mxGeometry>
        </mxCell>
        <mxCell id="Fjg43alI3TSpxmNCnaQL-167" value="" style="endArrow=classic;html=1;rounded=0;exitX=1;exitY=0.5;exitDx=0;exitDy=0;entryX=0;entryY=0.5;entryDx=0;entryDy=0;" edge="1" parent="1" target="Fjg43alI3TSpxmNCnaQL-136">
          <mxGeometry width="50" height="50" relative="1" as="geometry">
            <mxPoint x="260" y="280" as="sourcePoint" />
            <mxPoint x="330" y="300" as="targetPoint" />
          </mxGeometry>
        </mxCell>
        <mxCell id="Fjg43alI3TSpxmNCnaQL-168" value="" style="endArrow=classic;html=1;rounded=0;exitX=1;exitY=0.5;exitDx=0;exitDy=0;entryX=0.525;entryY=1;entryDx=0;entryDy=0;entryPerimeter=0;" edge="1" parent="1" target="Fjg43alI3TSpxmNCnaQL-140">
          <mxGeometry width="50" height="50" relative="1" as="geometry">
            <mxPoint x="740" y="500" as="sourcePoint" />
            <mxPoint x="810" y="340" as="targetPoint" />
          </mxGeometry>
        </mxCell>
        <mxCell id="Fjg43alI3TSpxmNCnaQL-169" value="" style="endArrow=classic;html=1;rounded=0;exitX=1;exitY=0.5;exitDx=0;exitDy=0;entryX=0;entryY=0.5;entryDx=0;entryDy=0;" edge="1" parent="1" target="Fjg43alI3TSpxmNCnaQL-149">
          <mxGeometry width="50" height="50" relative="1" as="geometry">
            <mxPoint x="840" y="280" as="sourcePoint" />
            <mxPoint x="910" y="300" as="targetPoint" />
          </mxGeometry>
        </mxCell>
      </root>
    </mxGraphModel>
  </diagram>
</mxfile>
